PathFileType	4	(X/Y/Z)	/home/utkubuntu/opensim/opensim_mycode/release_code/bioimitation/imitation_envs/data/02905/02905_PRE/experimental_data/static.trc
DataRate	CameraRate	NumFrames	NumMarkers	Units	OrigDataRate	OrigDataStartFrame	OrigNumFrames
100.000000	100.000000	4	53	mm	100.000000	0	1000
Frame#	Time	C7			CLAV			LANK			LASI			LBHD			LELB			LFHD			LFIN			LFMH			LHEE			LKNE			LKNI			LMED			LMET			LMIF			LPSI			LSHO			LTAD			LTHAP			LTHI			LTIAD			LTIB			LTOE			LTTU			LWRA			LWRB			RANK			RASI			RBAK			RBHD			RELB			RFHD			RFIN			RFMH			RHEE			RKNE			RKNI			RMED			RMET			RMIF			RPSI			RSHO			RTAD			RTHAP			RTHI			RTIAD			RTIB			RTOE			RTTU			RWRA			RWRB			STRN			T10			
		X1	Y1	Z1	X2	Y2	Z2	X3	Y3	Z3	X4	Y4	Z4	X5	Y5	Z5	X6	Y6	Z6	X7	Y7	Z7	X8	Y8	Z8	X9	Y9	Z9	X10	Y10	Z10	X11	Y11	Z11	X12	Y12	Z12	X13	Y13	Z13	X14	Y14	Z14	X15	Y15	Z15	X16	Y16	Z16	X17	Y17	Z17	X18	Y18	Z18	X19	Y19	Z19	X20	Y20	Z20	X21	Y21	Z21	X22	Y22	Z22	X23	Y23	Z23	X24	Y24	Z24	X25	Y25	Z25	X26	Y26	Z26	X27	Y27	Z27	X28	Y28	Z28	X29	Y29	Z29	X30	Y30	Z30	X31	Y31	Z31	X32	Y32	Z32	X33	Y33	Z33	X34	Y34	Z34	X35	Y35	Z35	X36	Y36	Z36	X37	Y37	Z37	X38	Y38	Z38	X39	Y39	Z39	X40	Y40	Z40	X41	Y41	Z41	X42	Y42	Z42	X43	Y43	Z43	X44	Y44	Z44	X45	Y45	Z45	X46	Y46	Z46	X47	Y47	Z47	X48	Y48	Z48	X49	Y49	Z49	X50	Y50	Z50	X51	Y51	Z51	X52	Y52	Z52	X53	Y53	Z53	

1	0	774.5330200195312	1443.844970703125	-279.6159973144528	878.81201171875	1349.795043945312	-260.6350097656247	723.4970092773438	78.21299743652352	-361.9110107421875	895.6480102539062	945.4530029296876	-355.3800048828123	802.197998046875	1534.746948242188	-353.0899963378903	723.1220092773438	1099.296020507813	-551.398986816406	920.8809814453125	1637.81298828125	-320.8489990234372	803.093994140625	853.3049926757814	-677.8280029296873	862.947998046875	36.3279991149903	-290.3680114746094	672.0189819335938	39.32500076293952	-333.6940002441406	781.0640258789062	469.8280029296876	-380.678009033203	778.0349731445312	457.8569946289063	-264.5920104980468	729.1389770507812	87.56400299072271	-281.3999938964844	833.6220092773438	27.54500007629403	-384.0610046386719	804.1630249023438	74.05500030517585	-329.2359924316406	729.2080078125	959.9089965820314	-298.7810058593748	809.2020263671875	1383.245971679688	-432.5639953613278	857.3280029296875	528.1259765625001	-312.0549926757811	902.4459838867188	693.3300170898439	-315.6390075683592	806.3770141601562	566.5469970703126	-427.0710144042968	776.8159790039062	208.1250000000001	-321.7590026855468	742.9739990234375	299.8819885253907	-433.0679931640624	859.2579956054688	40.83599853515632	-335.5759887695312	811.1810302734375	384.0400085449219	-322.522003173828	830.7860107421875	889.3309936523439	-631.440979003906	764.0919799804688	889.2839965820314	-656.5809936523435	712.8270263671875	74.67500305175784	-100.9820022583008	873.1220092773438	958.4039916992188	-110.3799972534178	697.2080078125	1343.579956054688	-155.0359954833982	788.1939697265625	1523.722045898438	-193.3359985351559	676.2009887695312	1110.514038085938	-8.991000175475827	904.3079833984375	1624.197998046875	-196.7149963378903	732.5050048828125	863.7449951171875	169.5839996337893	854.8679809570312	36.16999816894535	-158.2339935302734	653.3170166015625	34.94699859619143	-131.0839996337891	793.3389892578125	475.4169921875	-91.19699859619131	790.6669921875	465.1279907226563	-210.7980041503905	715.3400268554688	85.34200286865239	-184.1510009765625	813.8460083007812	26.57699966430665	-65.64399719238281	802.1179809570312	67.36100006103518	-129.8789978027343	719.8939819335938	966.4349975585938	-197.0630035400388	778.573974609375	1396.108032226562	-96.54599761962859	869.6370239257812	554.60302734375	-136.9989929199218	902.7659912109375	720.4650268554688	-117.1529998779295	802.5029907226562	589.1300048828125	-37.71300125122058	785.85498046875	257.0390014648438	-141.8800048828124	735.85302734375	297.5849914550781	-33.54399871826165	846.8070068359375	39.56800079345706	-113.7109985351562	825.22998046875	395.6839904785157	-142.5410003662109	764.6290283203125	903.8079833984375	118.8860015869143	693.573974609375	900.3690185546875	130.7050018310549	895.68701171875	1190.26904296875	-249.7579956054685	688.43701171875	1149.671020507812	-266.4320068359373	
2	0.01	774.6430053710938	1443.848999023438	-279.6260070800778	878.9000244140625	1349.755004882812	-260.6419982910153	723.5150146484375	78.20899963378915	-361.9289855957031	895.6539916992188	945.4409790039064	-355.3890075683591	802.3259887695312	1534.761962890625	-353.0899963378903	723.1309814453125	1099.343994140625	-551.4530029296873	921.0440063476562	1637.760009765625	-320.8420104980465	803.0159912109375	853.3540039062501	-677.9210205078123	862.9349975585938	36.3269996643067	-290.3670043945312	672.0269775390625	39.33200073242195	-333.7009887695312	781.0330200195312	469.8320007324219	-380.6919860839843	777.9669799804688	457.8649902343751	-264.605987548828	729.2030029296875	87.66400146484381	-281.406005859375	833.6270141601562	27.54400062561044	-384.0719909667969	804.1090087890625	74.00299835205085	-329.2120056152344	729.2429809570312	959.9019775390626	-298.8059997558591	809.2839965820312	1383.259033203125	-432.585998535156	857.2059936523438	528.1320190429689	-312.0650024414061	902.4030151367188	693.3280029296876	-315.6619873046873	806.3070068359375	566.5479736328126	-427.0750122070311	776.739990234375	208.145004272461	-321.7780151367187	742.9359741210938	299.8850097656251	-433.0849914550781	859.2050170898438	40.82400131225593	-335.6329956054688	811.1259765625	384.0549926757813	-322.5400085449218	830.6690063476562	889.3010253906251	-631.5079956054685	764.2890014648438	889.5020141601564	-656.8489990234373	712.8189697265625	74.68800354003909	-100.9940032958984	873.1010131835938	958.39697265625	-110.3960037231443	697.198974609375	1343.599975585938	-155.0749969482419	788.323974609375	1523.722045898438	-193.3249969482418	676.177978515625	1110.488037109375	-9.07499980926489	904.458984375	1624.156982421875	-196.7100067138668	732.4739990234375	863.7100219726562	169.5010070800783	854.7990112304688	36.18799972534183	-158.3990020751953	653.3330078125	34.9570007324219	-131.0879974365234	793.3359985351562	475.4110107421875	-91.2030029296874	790.6719970703125	465.1220092773438	-210.8150024414061	715.3389892578125	85.33200073242192	-184.1629943847656	813.843994140625	26.57999992370607	-65.65299987792969	802.1069946289062	67.36599731445315	-129.8849945068359	719.9199829101562	966.4349975585938	-197.1049957275388	778.6380004882812	1396.0830078125	-96.5709991455075	869.6400146484375	554.6099853515625	-137.0249938964843	902.9349975585938	720.52099609375	-117.1539993286131	802.5419921875	589.1270141601562	-37.75400161743151	785.8599853515625	257.0419921875001	-141.886001586914	735.8560180664062	297.5880126953125	-33.55300140380853	846.8090209960938	39.56299972534183	-113.7080001831055	825.2260131835938	395.6820068359376	-142.5489959716796	764.572021484375	903.7509765625	118.7890014648439	693.5640258789062	900.3400268554688	130.6190032958986	895.6400146484375	1190.218017578125	-249.7920074462888	688.468017578125	1149.693969726562	-266.4670104980466	
3	0.02	774.7459716796875	1443.85595703125	-279.6369934082028	878.989013671875	1349.715942382812	-260.6539916992185	723.5399780273438	78.19799804687509	-361.9429931640625	895.6589965820312	945.4310302734376	-355.3959960937498	802.4509887695312	1534.788940429688	-353.0780029296872	723.125	1099.402954101563	-551.512023925781	921.2139892578125	1637.7080078125	-320.8280029296872	802.9429931640625	853.4069824218751	-678.0009765624998	862.9190063476562	36.32099914550788	-290.3699951171875	672.0380249023438	39.33399963378913	-333.7059936523438	780.9929809570312	469.8370056152344	-380.7000122070311	777.885009765625	457.8729858398438	-264.6140136718749	729.2869873046875	87.77899932861334	-281.4240112304688	833.6329956054688	27.54500007629403	-384.0799865722656	804.0369873046875	73.93499755859382	-329.1789855957031	729.2780151367188	959.9030151367189	-298.825988769531	809.3729858398438	1383.27197265625	-432.6059875488278	857.0679931640625	528.1370239257814	-312.0769958496093	902.364013671875	693.3270263671876	-315.6830139160155	806.2109985351562	566.5490112304689	-427.0620117187499	776.6539916992188	208.1609954833985	-321.7969970703124	742.8980102539062	299.8880004882814	-433.1000061035156	859.135986328125	40.81200027465827	-335.6969909667969	811.072021484375	384.0669860839844	-322.5559997558593	830.5419921875	889.2609863281251	-631.5570068359373	764.5449829101562	889.7639770507814	-657.1500244140623	712.823974609375	74.70899963378909	-101.0130004882812	873.0910034179688	958.39697265625	-110.4069976806638	697.2100219726562	1343.621948242188	-155.1089935302732	788.4559936523438	1523.724975585938	-193.3119964599606	676.1790161132812	1110.461059570312	-9.152000427245847	904.6160278320312	1624.108032226562	-196.7109985351559	732.447998046875	863.676025390625	169.4170074462893	854.7039794921875	36.20999908447269	-158.6000061035156	653.35400390625	34.96699905395511	-131.0910034179688	793.3189697265625	475.4159851074219	-91.20999908447256	790.6690063476562	465.1159973144532	-210.8320007324218	715.3410034179688	85.31700134277348	-184.1750030517578	813.844970703125	26.57699966430665	-65.66600036621094	802.0969848632812	67.37400054931643	-129.8970031738281	719.9310302734375	966.4450073242188	-197.1399993896482	778.708984375	1396.06298828125	-96.58799743652312	869.6439819335938	554.6160278320312	-137.0460052490233	903.1270141601562	720.5770263671875	-117.1439971923827	802.5659790039062	589.1300048828125	-37.78900146484362	785.8699951171875	257.0490112304688	-141.9010009765624	735.8560180664062	297.5899963378906	-33.56299972534173	846.8099975585938	39.55300140380862	-113.7109985351562	825.2260131835938	395.6830139160157	-142.5599975585937	764.5159912109375	903.68798828125	118.6900024414064	693.5689697265625	900.3150024414062	130.5299987792971	895.6099853515625	1190.1669921875	-249.8190002441404	688.4879760742188	1149.723999023438	-266.5039978027341	
4	0.03	774.8400268554688	1443.871948242188	-279.6459960937497	879.0809936523438	1349.678955078125	-260.6700134277341	723.5670166015625	78.17800140380868	-361.9509887695312	895.6640014648438	945.4210205078126	-355.4030151367185	802.572021484375	1534.8349609375	-353.0480041503903	723.0969848632812	1099.47802734375	-551.5780029296873	921.39501953125	1637.659057617188	-320.8020019531247	802.8839721679688	853.4650268554689	-678.0620117187498	862.8980102539062	36.31100082397467	-290.3789978027344	672.052001953125	39.32699966430671	-333.7059936523438	780.9409790039062	469.8450012207032	-380.7000122070311	777.7839965820312	457.8810119628907	-264.6109924316405	729.3870239257812	87.89700317382818	-281.4639892578125	833.6409912109375	27.54800033569344	-384.0840148925781	803.947021484375	73.85199737548835	-329.1400146484375	729.3090209960938	959.9169921875001	-298.8370056152341	809.4710083007812	1383.286987304688	-432.6239929199216	856.9229736328125	528.1389770507814	-312.0920104980468	902.3300170898438	693.3270263671876	-315.7030029296873	806.0809936523438	566.5529785156251	-427.0260009765624	776.572021484375	208.1699981689454	-321.8179931640624	742.864013671875	299.8890075683595	-433.1130065917968	859.052978515625	40.80099868774421	-335.7640075683594	811.02099609375	384.0759887695313	-322.5710144042968	830.4169921875	889.2199707031251	-631.5830078124998	764.8330078125	890.0510253906251	-657.4580078124998	712.844970703125	74.73799896240237	-101.0400009155273	873.094970703125	958.405029296875	-110.4140014648435	697.2449951171875	1343.651000976562	-155.1360015869138	788.5910034179688	1523.72998046875	-193.2989959716793	676.2169799804688	1110.433959960938	-9.220999717712155	904.7869873046875	1624.0439453125	-196.7200012207028	732.4290161132812	863.6420288085938	169.3289947509768	854.5869750976562	36.2350006103516	-158.8179931640625	653.385986328125	34.97900009155276	-131.0959930419922	793.2860107421875	475.4349975585938	-91.22000122070303	790.6519775390625	465.1119995117188	-210.8500061035155	715.3499755859375	85.29799652099614	-184.1900024414062	813.8489990234375	26.5639991760254	-65.68800354003906	802.0880126953125	67.38300323486331	-129.9160003662109	719.927978515625	966.4660034179688	-197.1699981689451	778.7919921875	1396.052001953125	-96.59600067138641	869.64501953125	554.6179809570312	-137.0579986572264	903.322021484375	720.6270141601562	-117.1249999999998	802.5679931640625	589.1389770507812	-37.8180007934569	785.885009765625	257.0610046386719	-141.9239959716796	735.8519897460938	297.5899963378906	-33.57500076293939	846.8090209960938	39.53499984741214	-113.7210006713867	825.2319946289062	395.6879882812501	-142.574005126953	764.4619750976562	903.6199951171875	118.58699798584	693.594970703125	900.2990112304688	130.4299926757814	895.6060180664062	1190.119018554688	-249.8390045166013	688.4920043945312	1149.767944335938	-266.5390014648435	
